<svg fill="none" height="42" viewBox="0 0 191 42" width="191" xmlns="http://www.w3.org/2000/svg"><g fill="#fff"><path d="m55.5778 26.3846v-15.0549h-4.5778v19.2307h11.8632v-4.1758z"/><path d="m71.7691 31c4.9965 0 8.1507-3.1044 8.1507-7.8297v-11.8406h-4.5778v11.7033c0 2.445-1.3678 3.7912-3.5729 3.7912-2.2052 0-3.5729-1.3462-3.5729-3.7912v-11.7033h-4.5778v11.8406c0 4.7253 3.1542 7.8297 8.1507 7.8297z"/><path d="m97.9789 30.5604-5.8618-9.9725 5.3593-9.2582h-4.9685l-3.2101 5.9066-3.21-5.9066h-5.0803l5.3594 9.1483-5.8618 10.0824h5.0244l3.6846-6.5934 3.6566 6.5934z"/><path d="m111.907 11.3297h-14.3473v2.4176h5.8893v16.8131h2.568v-16.8131h5.89z"/><path d="m122.296 30.8901c5.918 0 10.244-4.2582 10.244-9.945 0-5.6869-4.326-9.9451-10.244-9.9451-5.917 0-10.244 4.2582-10.244 9.9451 0 5.6868 4.327 9.945 10.244 9.945zm0-2.4176c-4.41 0-7.676-3.2143-7.676-7.5274 0-4.3132 3.266-7.5275 7.676-7.5275 4.411 0 7.676 3.2143 7.676 7.5275 0 4.3131-3.265 7.5274-7.676 7.5274z"/><path d="m157.666 11.3297-4.689 15.0549-5.108-15.0549h-2.541l-5.052 15.0824-4.689-15.0824h-2.736l6.002 19.2307h2.568l5.164-15.412 5.191 15.412h2.569l6.001-19.2307z"/><path d="m164.665 28.1978v-6.3187h7.844v-2.3626h-7.844v-5.8242h8.57v-2.3626h-11.138v19.2307h11.445v-2.3626z"/><path d="m188.097 30.5604h2.903l-4.634-7.7472c2.568-.7692 4.215-2.9396 4.215-5.5495 0-3.3516-2.624-5.934-6.42-5.934h-7.453v19.2307h2.568v-7.4175h4.411zm-.14-13.3241c0 2.0879-1.479 3.5439-3.935 3.5439h-4.746v-7.0879h4.746c2.456 0 3.935 1.456 3.935 3.544z"/><path d="m27.7327 12.9595-3.2399-.7104-10.2255 2.2389v1.4692l10.2255-2.2389 3.2399.7105zm-14.9669 11.0705v16.2909c-1.6092-.6889-3.11613-1.5662-4.48851-2.6156v-11.0813c1.50154-.8664 2.99771-1.7329 4.48851-2.594zm26.9361.8665-1.4907-.8665v9.0038c2.3841-3.4067 3.7888-7.5561 3.7888-12.0338 0-5.7963-2.3573-11.04895-6.1515-14.84854-3.7996-3.79959-9.0522-6.15146-14.8485-6.15146-5.8016 0-11.04895 2.35187-14.84316 6.15146-3.79959 3.79959-6.15684 9.04694-6.15684 14.84314 0 5.8017 2.35725 11.049 6.15684 14.8486.20451.2099.41441.409.62968.6081v-8.9662l-3.40671 1.9644c-1.22707-2.5564-1.91595-5.4249-1.91595-8.4549 0-5.398 2.19042-10.2847 5.72092-13.82059 3.53052-3.53049 8.41722-5.71553 13.81522-5.71553s10.2847 2.18504 13.8206 5.7263c3.5359 3.53592 5.7209 8.42262 5.7209 13.82062 0 1.9697-.2906 3.8749-.8342 5.6671v-1.776zm-2.9869 10.0264c-.2798.3175-.5705.6243-.8665.9203-.2099.2045-.4144.409-.6296.6027v-14.1435l1.4961.8611zm-2.9977 2.7824c-.479.3713-.9849.7158-1.4961 1.0441v-18.1746l1.4961.8665zm-2.9923 1.9052c-.4844.2529-.9849.4897-1.4961.7104v-21.4736l1.4961.8664zm-2.9923 1.2808c-2.1151.7158-4.3808 1.1033-6.7327 1.1033-2.3573 0-4.623-.3875-6.7381-1.1033v-.4628c.8504-.1991 1.1948-.2691 2.0774-.4467l8.1481-1.7868 3.2399.7051v1.2163zm-7.2171-.3605c.1669.0053.3229.0053.4844.0053 1.6522 0 3.2614-.2045 4.7899-.592l-1.2917-.2798zm7.2171-4.467-3.2399-.7104-10.2255 2.2389v1.4692l10.2255-2.2388 3.2399.7104zm0-2.9331-3.2399-.7104-10.2309 2.2388v1.4693l10.2255-2.2389 3.2399.7104v-1.4692zm0-2.847-3.2399-.705-10.2255 2.2334v1.4693l10.2255-2.2335 3.2399.705zm0-2.9331-3.2399-.705-10.2255 2.2334v1.4693l10.2255-2.2335 3.2399.705zm0-2.9331-3.2399-.7104-10.2255 2.2388v1.4693l10.2255-2.2389 3.2399.7104zm0-2.8416-3.2399-.7104-10.2255 2.2388v1.4693l10.2255-2.2389 3.2399.7104zm0-2.8417-3.2399-.7104-10.2255 2.2389v1.4692l10.2255-2.2388 3.2399.7104zm0-2.9331-3.2399-.7104-10.2309 2.2389v1.4692l10.2255-2.2388 3.2399.7104v-1.4693z"/></g></svg>